<svg xmlns="http://www.w3.org/2000/svg" width="1120" height="500" viewBox="0 0 1120 500" role="img" aria-label="Voice Agent Reliability Lab evidence map">
  <defs>
    <style>
      .bg { fill:#f8fafc; }
      .panel { fill:#ffffff; stroke:#d8e1ec; stroke-width:1.1; }
      .title { font:760 28px -apple-system,BlinkMacSystemFont,"Segoe UI",sans-serif; fill:#111827; }
      .node { font:620 13px -apple-system,BlinkMacSystemFont,"Segoe UI",sans-serif; fill:#1f2937; }
      .head { font:700 14px -apple-system,BlinkMacSystemFont,"Segoe UI",sans-serif; fill:#64748b; }
      .mono { font:720 13px ui-monospace,SFMono-Regular,Menlo,monospace; fill:#334155; }
      .edge { stroke:#94a3b8; stroke-width:2; fill:none; marker-end:url(#arrow); }
      .lane { fill:#eff6ff; stroke:#dbeafe; }
      .failure { fill:#ecfeff; stroke:#bae6fd; }
      .evidencebox { fill:#fef9c3; stroke:#fde68a; }
      .actionbox { fill:#f0fdf4; stroke:#bbf7d0; }
    </style>
    <marker id="arrow" viewBox="0 0 10 10" refX="9" refY="5" markerWidth="5" markerHeight="5" orient="auto-start-reverse"><path d="M 0 0 L 10 5 L 0 10 z" fill="#94a3b8"/></marker>
  </defs>
  <rect class="bg" width="1120" height="500"/>
  <rect class="panel" x="28" y="28" width="1064" height="444" rx="8"/>
  <text x="56" y="70" class="title">Voice Agent Reliability Lab evidence path</text>
  <text x="64" y="104" class="head">scenario</text><text x="294" y="104" class="head">status mix</text><text x="548" y="104" class="head">evidence</text><text x="764" y="104" class="head">decision</text>
  <path d="M242 146 L294 146" class="edge"/><path d="M480 146 L548 146" class="edge"/><path d="M694 146 L764 146" class="edge"/><path d="M242 234 L294 234" class="edge"/><path d="M480 234 L548 234" class="edge"/><path d="M694 234 L764 234" class="edge"/><path d="M242 322 L294 322" class="edge"/><path d="M480 322 L548 322" class="edge"/><path d="M694 322 L764 322" class="edge"/><path d="M242 410 L294 410" class="edge"/><path d="M480 410 L548 410" class="edge"/><path d="M694 410 L764 410" class="edge"/>
  <rect class="lane" x="64" y="118" width="178" height="56" rx="8"/><text class="node" x="78" y="141"><tspan x="78" dy="0">Offline dashboard</tspan><tspan x="78" dy="16">generated static</tspan></text><rect class="failure" x="294" y="118" width="186" height="56" rx="8"/><text class="node" x="308" y="150"><tspan x="308" dy="0">2 fail / 1 review</tspan></text><rect class="evidencebox" x="548" y="118" width="146" height="56" rx="8"/><text class="mono" x="575" y="153">ev_0015</text><rect class="actionbox" x="764" y="118" width="292" height="56" rx="8"/><text class="node" x="778" y="141"><tspan x="778" dy="0">block release and replay exact</tspan><tspan x="778" dy="16">evidence</tspan></text><rect class="lane" x="64" y="206" width="178" height="56" rx="8"/><text class="node" x="78" y="229"><tspan x="78" dy="0">Replay-case</tspan><tspan x="78" dy="16">compilation recur...</tspan></text><rect class="failure" x="294" y="206" width="186" height="56" rx="8"/><text class="node" x="308" y="238"><tspan x="308" dy="0">2 fail / 1 review</tspan></text><rect class="evidencebox" x="548" y="206" width="146" height="56" rx="8"/><text class="mono" x="575" y="241">ev_0085</text><rect class="actionbox" x="764" y="206" width="292" height="56" rx="8"/><text class="node" x="778" y="229"><tspan x="778" dy="0">block release and replay exact</tspan><tspan x="778" dy="16">evidence</tspan></text><rect class="lane" x="64" y="294" width="178" height="56" rx="8"/><text class="node" x="78" y="317"><tspan x="78" dy="0">Synthetic voice-call</tspan><tspan x="78" dy="16">traces latency</tspan></text><rect class="failure" x="294" y="294" width="186" height="56" rx="8"/><text class="node" x="308" y="326"><tspan x="308" dy="0">2 fail / 1 review</tspan></text><rect class="evidencebox" x="548" y="294" width="146" height="56" rx="8"/><text class="mono" x="575" y="329">ev_0000</text><rect class="actionbox" x="764" y="294" width="292" height="56" rx="8"/><text class="node" x="778" y="317"><tspan x="778" dy="0">block release and replay exact</tspan><tspan x="778" dy="16">evidence</tspan></text><rect class="lane" x="64" y="382" width="178" height="56" rx="8"/><text class="node" x="78" y="405"><tspan x="78" dy="0">Verifier tests cover</tspan><tspan x="78" dy="16">unsupported unknown</tspan></text><rect class="failure" x="294" y="382" width="186" height="56" rx="8"/><text class="node" x="308" y="414"><tspan x="308" dy="0">2 fail / 1 review</tspan></text><rect class="evidencebox" x="548" y="382" width="146" height="56" rx="8"/><text class="mono" x="575" y="417">ev_0090</text><rect class="actionbox" x="764" y="382" width="292" height="56" rx="8"/><text class="node" x="778" y="405"><tspan x="778" dy="0">block release and replay exact</tspan><tspan x="778" dy="16">evidence</tspan></text>
</svg>
