<svg xmlns="http://www.w3.org/2000/svg" width="1120" height="500" viewBox="0 0 1120 500" role="img" aria-label="voicefail-crucible evidence map">
  <defs>
    <style>
      .title { font: 750 28px -apple-system, BlinkMacSystemFont, "Segoe UI", sans-serif; fill:#111827; }
      .head { font: 700 14px -apple-system, BlinkMacSystemFont, "Segoe UI", sans-serif; fill:#64748b; }
      .node { font: 600 13px -apple-system, BlinkMacSystemFont, "Segoe UI", sans-serif; fill:#1f2937; }
      .edge { stroke:#94a3b8; stroke-width:2; fill:none; }
    </style>
  </defs>
  <rect width="1120" height="500" fill="#ffffff"/>
  <text x="56" y="52" class="title">voicefail-crucible evidence path</text>
  <text x="70" y="84" class="head">case</text><text x="410" y="84" class="head">evidence</text><text x="720" y="84" class="head">action</text>
  <path d="M290 120 L410 120 M600 120 L720 120" class="edge"/><path d="M290 210 L410 210 M600 210 L720 210" class="edge"/><path d="M290 300 L410 300 M600 300 L720 300" class="edge"/><path d="M290 390 L410 390 M600 390 L720 390" class="edge"/>
  <rect x="70" y="98" width="220" height="44" rx="10" fill="#eef2ff"/><text x="86" y="125" class="node">&lt;script&gt;alert(&#x27;xss&#x27;)&lt;/sc...</text><rect x="410" y="98" width="190" height="44" rx="10" fill="#fef9c3"/><text x="426" y="125" class="node">ev_0000</text><rect x="720" y="98" width="280" height="44" rx="10" fill="#dcfce7"/><text x="736" y="125" class="node">block release and replay exact ev...</text><rect x="70" y="188" width="220" height="44" rx="10" fill="#eef2ff"/><text x="86" y="215" class="node">Dashboard escaping tests...</text><rect x="410" y="188" width="190" height="44" rx="10" fill="#fef9c3"/><text x="426" y="215" class="node">ev_0007</text><rect x="720" y="188" width="280" height="44" rx="10" fill="#dcfce7"/><text x="736" y="215" class="node">escalate for expert review</text><rect x="70" y="278" width="220" height="44" rx="10" fill="#eef2ff"/><text x="86" y="305" class="node">Evidence identifiers pre...</text><rect x="410" y="278" width="190" height="44" rx="10" fill="#fef9c3"/><text x="426" y="305" class="node">ev_0010</text><rect x="720" y="278" width="280" height="44" rx="10" fill="#dcfce7"/><text x="736" y="305" class="node">block release and replay exact ev...</text><rect x="70" y="368" width="220" height="44" rx="10" fill="#eef2ff"/><text x="86" y="395" class="node">Evidence verification ev...</text><rect x="410" y="368" width="190" height="44" rx="10" fill="#fef9c3"/><text x="426" y="395" class="node">ev_0014</text><rect x="720" y="368" width="280" height="44" rx="10" fill="#dcfce7"/><text x="736" y="395" class="node">escalate for expert review</text>
</svg>
