<svg xmlns="http://www.w3.org/2000/svg" width="1120" height="700" viewBox="0 0 1120 700" role="img" aria-label="Voice Agent Reliability Lab working dashboard">
  <defs>
    <style>
      .bg { fill:#f8fafc; }
      .panel,.card,.actioncard { fill:#ffffff; stroke:#d8e1ec; stroke-width:1.1; }
      .title { font:760 30px -apple-system,BlinkMacSystemFont,"Segoe UI",sans-serif; fill:#111827; }
      .sub { font:420 15px -apple-system,BlinkMacSystemFont,"Segoe UI",sans-serif; fill:#475569; }
      .label { font:700 14px -apple-system,BlinkMacSystemFont,"Segoe UI",sans-serif; fill:#1f2937; }
      .caption { font:500 12px -apple-system,BlinkMacSystemFont,"Segoe UI",sans-serif; fill:#64748b; }
      .small { font:650 12px -apple-system,BlinkMacSystemFont,"Segoe UI",sans-serif; fill:#64748b; }
      .metric { font:780 29px -apple-system,BlinkMacSystemFont,"Segoe UI",sans-serif; fill:#0f172a; }
      .rank { font:760 13px -apple-system,BlinkMacSystemFont,"Segoe UI",sans-serif; fill:#2563eb; }
      .cardtext { font:650 14px -apple-system,BlinkMacSystemFont,"Segoe UI",sans-serif; fill:#142033; }
      .mono { font:700 12px ui-monospace,SFMono-Regular,Menlo,monospace; fill:#334155; }
    </style>
  </defs>
  <rect class="bg" width="1120" height="700"/>
  <rect class="panel" x="28" y="28" width="1064" height="644" rx="8"/>
  <text class="title" x="64" y="76">Voice Agent Reliability Lab Evidence Console</text>
  <text class="sub" x="64" y="108"><tspan x="64" dy="0">A local-first replay and release-gating prototype for voice-agent failure modes, with</tspan><tspan x="64" dy="22">deterministic traces, evidence-backed reports, and an offline dashboard.</tspan></text>
  <rect class="card" x="64" y="166" width="232" height="84" rx="8"/>
  <text class="small" x="84" y="194">records analyzed</text>
  <text class="metric" x="84" y="230">96</text>
  <rect class="card" x="320" y="166" width="232" height="84" rx="8"/>
  <text class="small" x="340" y="194">failures</text>
  <text class="metric" x="340" y="230">20</text>
  <rect class="card" x="576" y="166" width="480" height="84" rx="8"/>
  <text class="small" x="596" y="194">highest-risk scenario</text>
  <text class="label" x="596" y="224"><tspan x="596" dy="0">Offline dashboard generated static artifact</tspan></text>
  <rect class="card" x="64" y="292" width="492" height="338" rx="8"/>
  <text class="label" x="92" y="322">risk scenarios with cited evidence</text>
  <text class="label" x="92" y="354">Offline dashboard generated static ar...</text><text class="mono" x="462" y="354">ev_0015</text><rect x="92" y="366" width="396" height="14" rx="7" fill="#e5e7eb"/><rect x="92" y="366" width="327" height="14" rx="7" fill="#2563eb"/><text class="caption" x="92" y="406">block release and replay exact evidence</text><text class="label" x="92" y="422">Replay-case compilation recurring fai...</text><text class="mono" x="462" y="422">ev_0085</text><rect x="92" y="434" width="396" height="14" rx="7" fill="#e5e7eb"/><rect x="92" y="434" width="311" height="14" rx="7" fill="#0f766e"/><text class="caption" x="92" y="474">block release and replay exact evidence</text><text class="label" x="92" y="490">Synthetic voice-call traces latency i...</text><text class="mono" x="462" y="490">ev_0000</text><rect x="92" y="502" width="396" height="14" rx="7" fill="#e5e7eb"/><rect x="92" y="502" width="311" height="14" rx="7" fill="#7c3aed"/><text class="caption" x="92" y="542">block release and replay exact evidence</text><text class="label" x="92" y="558">Verifier tests cover unsupported unkn...</text><text class="mono" x="462" y="558">ev_0090</text><rect x="92" y="570" width="396" height="14" rx="7" fill="#e5e7eb"/><rect x="92" y="570" width="306" height="14" rx="7" fill="#ca8a04"/><text class="caption" x="92" y="610">block release and replay exact evidence</text>
  <text class="label" x="626" y="324">operator decisions</text>
  <rect class="actioncard" x="626" y="350" width="212" height="118" rx="8"/><text class="rank" x="644" y="378">decision 1</text><text class="cardtext" x="644" y="406"><tspan x="644" dy="0">block release and replay</tspan><tspan x="644" dy="17">exact evidence</tspan></text><text class="mono" x="644" y="452">ev_0015</text><rect class="actioncard" x="864" y="350" width="212" height="118" rx="8"/><text class="rank" x="882" y="378">decision 2</text><text class="cardtext" x="882" y="406"><tspan x="882" dy="0">block release and replay</tspan><tspan x="882" dy="17">exact evidence</tspan></text><text class="mono" x="882" y="452">ev_0085</text><rect class="actioncard" x="626" y="494" width="212" height="118" rx="8"/><text class="rank" x="644" y="522">decision 3</text><text class="cardtext" x="644" y="550"><tspan x="644" dy="0">block release and replay</tspan><tspan x="644" dy="17">exact evidence</tspan></text><text class="mono" x="644" y="596">ev_0000</text><rect class="actioncard" x="864" y="494" width="212" height="118" rx="8"/><text class="rank" x="882" y="522">decision 4</text><text class="cardtext" x="882" y="550"><tspan x="882" dy="0">block release and replay</tspan><tspan x="882" dy="17">exact evidence</tspan></text><text class="mono" x="882" y="596">ev_0090</text>
</svg>
